<?xml version="1.0" encoding="utf-8"?>
<!-- Generator: Adobe Illustrator 25.4.1, SVG Export Plug-In . SVG Version: 6.00 Build 0)  -->
<svg version="1.1" id="Layer_1" xmlns="http://www.w3.org/2000/svg" xmlns:xlink="http://www.w3.org/1999/xlink" x="0px" y="0px"
	 viewBox="0 0 14 44" style="enable-background:new 0 0 14 44;" xml:space="preserve">
<style type="text/css">
	.st0{fill:none;}
	.st1{fill:#FFFFFF;}
</style>
<path class="st0" d="M0,0h14v44H0V0z"/>
<g>
	<path class="st1" d="M13.5,27.7L10,24.2c1.9-2.3,1.6-5.7-0.8-7.6c-2.3-1.9-5.7-1.6-7.6,0.8S0,23.1,2.3,25c2,1.6,4.9,1.6,6.9,0
		l3.5,3.5c0.2,0.2,0.6,0.2,0.8,0S13.7,27.9,13.5,27.7L13.5,27.7L13.5,27.7z M1.5,20.8c0-2.4,1.9-4.3,4.3-4.3c2.4,0,4.3,1.9,4.3,4.3
		c0,2.4-1.9,4.3-4.3,4.3C3.4,25.1,1.5,23.2,1.5,20.8z"/>
</g>
</svg>
