<?xml version="1.0" encoding="utf-8"?>
<!-- Generator: Adobe Illustrator 25.4.1, SVG Export Plug-In . SVG Version: 6.00 Build 0)  -->
<svg version="1.1" id="Layer_1" xmlns="http://www.w3.org/2000/svg" xmlns:xlink="http://www.w3.org/1999/xlink" x="0px" y="0px"
	 viewBox="0 0 43 43" style="enable-background:new 0 0 43 43;" xml:space="preserve">
<style type="text/css">
	.st0{fill:#888888;}
	.st1{fill:#86868B;}
</style>
<path class="st0" d="M21.5,43C9.6,43,0,33.3,0,21.5S9.6,0,21.5,0S43,9.6,43,21.5S33.3,43,21.5,43z M21.5,2C10.7,2,2,10.8,2,21.5
	S10.7,41,21.5,41S41,32.3,41,21.5S32.3,2,21.5,2z"/>
<path class="st1" d="M14.2,20h0.9l-1-6.3c0-0.2-0.1-0.3-0.1-0.5c0-0.5,0.4-0.9,0.9-0.9H15c0.5,0,0.9,0.4,1,0.9l0.9,6.9h1.9l1.3-6.8
	c0.1-0.6,0.5-1,1.1-1s1.1,0.4,1.2,1l1.3,6.8h1.9l0.9-6.9c0.1-0.5,0.5-0.9,1-0.8c0.5-0.1,0.9,0.3,1,0.7v0.2c0,0.2,0,0.3-0.1,0.5
	l-1,6.4h0.8c0.4,0,0.8,0.3,0.8,0.7V21c0,0.4-0.3,0.8-0.8,0.8h-1.1l-1,7.7c-0.1,0.6-0.5,1-1.1,0.9c-0.5,0.1-1-0.4-1.1-0.9l-1.6-7.9
	h-2.1l-1.5,7.9c0,0.5-0.5,1-1.1,0.9c-0.6,0-1-0.4-1.1-0.9l-1.2-7.9h-1.1c-0.4,0-0.8-0.3-0.8-0.8C13.4,20.4,13.7,20.1,14.2,20
	L14.2,20z M17.7,26.5l0.9-4.8h-1.4L17.7,26.5z M22.1,20l-0.8-4.2L20.5,20H22.1z M24.9,26.5l0.6-4.9H24L24.9,26.5z"/>
</svg>
